mtllib crystal3.mtl
o Cube
v 0.278291 0.480786 0.075762
v 0.264894 0.530786 0.268947
v 0.085106 0.429022 0.075762
v 0.071709 0.479022 0.268947
v 0.407117 -0.000000 0.416188
v 0.200062 0.000000 0.401828
v 0.200062 0.000000 0.194773
v 0.407117 0.000000 0.209132
vt 0.625000 0.500000
vt 0.875000 0.500000
vt 0.875000 0.750000
vt 0.625000 0.750000
vt 0.410290 0.500000
vt 0.433407 0.250000
vt 0.625000 0.250000
vt 0.411077 1.000000
vt 0.387961 0.750000
vt 0.625000 1.000000
vt 0.411077 0.000000
vt 0.625000 0.000000
vt 0.226779 0.552283
vt 0.226779 0.604047
vt 0.175016 0.600457
vt 0.175016 0.548693
vn -0.2500 0.9330 -0.2588
vn 0.0670 -0.2500 -0.9659
vn -0.0670 0.2500 0.9659
vn -0.9659 -0.2588 -0.0000
vn -0.0000 -1.0000 -0.0000
vn 0.9659 0.2588 0.0000
usemtl Material
s off
f 1/1/1 3/2/1 4/3/1 2/4/1
f 8/5/2 7/6/2 3/7/2 1/1/2
f 6/8/3 5/9/3 2/4/3 4/10/3
f 7/6/4 6/11/4 4/12/4 3/7/4
f 8/13/5 5/14/5 6/15/5 7/16/5
f 5/9/6 8/5/6 1/1/6 2/4/6
o Cube.001
v 0.264894 0.530786 0.731053
v 0.278291 0.480786 0.924238
v 0.071709 0.479022 0.731053
v 0.085106 0.429022 0.924238
v 0.407117 -0.000000 0.790868
v 0.200062 0.000000 0.805227
v 0.200062 -0.000000 0.598172
v 0.407117 -0.000000 0.583812
vt 0.625000 0.500000
vt 0.875000 0.500000
vt 0.875000 0.750000
vt 0.625000 0.750000
vt 0.387961 0.500000
vt 0.411077 0.250000
vt 0.625000 0.250000
vt 0.433407 1.000000
vt 0.410290 0.750000
vt 0.625000 1.000000
vt 0.433407 0.000000
vt 0.625000 0.000000
vt 0.175016 0.649543
vt 0.226779 0.645953
vt 0.226779 0.697717
vt 0.175016 0.701307
vn -0.2500 0.9330 0.2588
vn -0.0670 0.2500 -0.9659
vn 0.0670 -0.2500 0.9659
vn -0.9659 -0.2588 -0.0000
vn -0.0000 -1.0000 0.0000
vn 0.9659 0.2588 0.0000
usemtl Material
s off
f 9/17/7 11/18/7 12/19/7 10/20/7
f 16/21/8 15/22/8 11/23/8 9/17/8
f 14/24/9 13/25/9 10/20/9 12/26/9
f 15/22/10 14/27/10 12/28/10 11/23/10
f 15/29/11 16/30/11 13/31/11 14/32/11
f 13/25/12 16/21/12 9/17/12 10/20/12
o Cube.002
v 0.928291 0.479022 0.731053
v 0.914894 0.429022 0.924238
v 0.735106 0.530786 0.731053
v 0.721709 0.480786 0.924238
v 0.799938 -0.000000 0.805227
v 0.592883 -0.000000 0.790868
v 0.592883 -0.000000 0.583812
v 0.799938 -0.000000 0.598172
vt 0.625000 0.500000
vt 0.875000 0.500000
vt 0.875000 0.750000
vt 0.625000 0.750000
vt 0.411077 0.500000
vt 0.387961 0.250000
vt 0.625000 0.250000
vt 0.410290 1.000000
vt 0.433407 0.750000
vt 0.625000 1.000000
vt 0.410290 0.000000
vt 0.625000 0.000000
vt 0.324984 0.649543
vt 0.324984 0.701307
vt 0.273221 0.697717
vt 0.273221 0.645953
vn 0.2500 0.9330 0.2588
vn 0.0670 0.2500 -0.9659
vn -0.0670 -0.2500 0.9659
vn -0.9659 0.2588 0.0000
vn -0.0000 -1.0000 -0.0000
vn 0.9659 -0.2588 -0.0000
usemtl Material
s off
f 17/33/13 19/34/13 20/35/13 18/36/13
f 24/37/14 23/38/14 19/39/14 17/33/14
f 22/40/15 21/41/15 18/36/15 20/42/15
f 23/38/16 22/43/16 20/44/16 19/39/16
f 24/45/17 21/46/17 22/47/17 23/48/17
f 21/41/18 24/37/18 17/33/18 18/36/18
o Cube.003
v 0.914894 0.429022 0.075762
v 0.928291 0.479022 0.268947
v 0.721709 0.480786 0.075762
v 0.735106 0.530786 0.268947
v 0.592883 0.000000 0.209132
v 0.799938 0.000000 0.194773
v 0.799938 -0.000000 0.401828
v 0.592883 -0.000000 0.416188
vt 0.625000 0.500000
vt 0.875000 0.500000
vt 0.875000 0.750000
vt 0.625000 0.750000
vt 0.433407 0.500000
vt 0.410290 0.250000
vt 0.625000 0.250000
vt 0.387961 1.000000
vt 0.411077 0.750000
vt 0.625000 1.000000
vt 0.387961 0.000000
vt 0.625000 0.000000
vt 0.273221 0.552283
vt 0.324984 0.548693
vt 0.324984 0.600457
vt 0.273221 0.604047
vn 0.2500 0.9330 -0.2588
vn -0.0670 -0.2500 -0.9659
vn 0.0670 0.2500 0.9659
vn -0.9659 0.2588 -0.0000
vn 0.0000 -1.0000 -0.0000
vn 0.9659 -0.2588 -0.0000
usemtl Material
s off
f 25/49/19 27/50/19 28/51/19 26/52/19
f 30/53/20 29/54/20 27/55/20 25/49/20
f 32/56/21 31/57/21 26/52/21 28/58/21
f 29/54/22 32/59/22 28/60/22 27/55/22
f 29/61/23 30/62/23 31/63/23 32/64/23
f 31/57/24 30/53/24 25/49/24 26/52/24
o middle_Cube.004
v 0.650000 0.750000 0.350000
v 0.650000 0.750000 0.650000
v 0.350000 0.750000 0.350000
v 0.350000 0.750000 0.650000
v 0.650000 -0.000000 0.650000
v 0.350000 -0.000000 0.650000
v 0.650000 -0.000000 0.350000
v 0.350000 -0.000000 0.350000
vt 0.625000 0.500000
vt 0.875000 0.500000
vt 0.875000 0.750000
vt 0.625000 0.750000
vt 0.416667 0.500000
vt 0.416667 0.250000
vt 0.625000 0.250000
vt 0.416667 1.000000
vt 0.416667 0.750000
vt 0.625000 1.000000
vt 0.416667 0.000000
vt 0.625000 0.000000
vt 0.212500 0.587500
vt 0.287500 0.587500
vt 0.287500 0.662500
vt 0.212500 0.662500
vn 0.0000 1.0000 0.0000
vn 0.0000 0.0000 -1.0000
vn 0.0000 0.0000 1.0000
vn -1.0000 0.0000 0.0000
vn 0.0000 -1.0000 0.0000
vn 1.0000 0.0000 0.0000
usemtl Material
s off
f 33/65/25 35/66/25 36/67/25 34/68/25
f 39/69/26 40/70/26 35/71/26 33/65/26
f 38/72/27 37/73/27 34/68/27 36/74/27
f 40/70/28 38/75/28 36/76/28 35/71/28
f 40/77/29 39/78/29 37/79/29 38/80/29
f 37/73/30 39/69/30 33/65/30 34/68/30
o bounding_box_Cube.005
v 0.000000 0.000000 1.000000
v 0.000000 1.000000 1.000000
v 0.000000 0.000000 0.000000
v 0.000000 1.000000 0.000000
v 1.000000 0.000000 1.000000
v 1.000000 1.000000 1.000000
v 1.000000 0.000000 0.000000
v 1.000000 1.000000 0.000000
vt 0.375000 0.000000
vt 0.625000 0.000000
vt 0.625000 0.250000
vt 0.375000 0.250000
vt 0.625000 0.500000
vt 0.375000 0.500000
vt 0.625000 0.750000
vt 0.375000 0.750000
vt 0.625000 1.000000
vt 0.375000 1.000000
vt 0.125000 0.500000
vt 0.125000 0.750000
vt 0.875000 0.500000
vt 0.875000 0.750000
vn -1.0000 0.0000 0.0000
vn 0.0000 0.0000 -1.0000
vn 1.0000 0.0000 0.0000
vn 0.0000 0.0000 1.0000
vn 0.0000 -1.0000 0.0000
vn 0.0000 1.0000 0.0000
